<svg width="1462" height="358" viewBox="0 0 1462 358" fill="none" xmlns="http://www.w3.org/2000/svg">
<path d="M96.9375 148V54.9091H137.301C144.392 54.9091 150.347 55.8636 155.165 57.7727C160.013 59.6818 163.665 62.3788 166.119 65.8636C168.604 69.3485 169.847 73.4545 169.847 78.1818C169.847 81.6061 169.089 84.7273 167.574 87.5455C166.089 90.3636 163.998 92.7273 161.301 94.6364C158.604 96.5151 155.453 97.8182 151.847 98.5455V99.4545C155.847 99.6061 159.483 100.621 162.756 102.5C166.028 104.348 168.634 106.909 170.574 110.182C172.513 113.424 173.483 117.242 173.483 121.636C173.483 126.727 172.15 131.258 169.483 135.227C166.847 139.197 163.089 142.318 158.21 144.591C153.331 146.864 147.513 148 140.756 148H96.9375ZM122.21 127.818H134.028C138.271 127.818 141.453 127.03 143.574 125.455C145.695 123.848 146.756 121.485 146.756 118.364C146.756 116.182 146.256 114.333 145.256 112.818C144.256 111.303 142.831 110.152 140.983 109.364C139.165 108.576 136.968 108.182 134.392 108.182H122.21V127.818ZM122.21 92.5455H132.574C134.786 92.5455 136.741 92.197 138.438 91.5C140.134 90.803 141.453 89.803 142.392 88.5C143.362 87.1667 143.847 85.5455 143.847 83.6364C143.847 80.7576 142.816 78.5606 140.756 77.0455C138.695 75.5 136.089 74.7273 132.938 74.7273H122.21V92.5455ZM216.256 149.273C208.801 149.273 202.377 147.848 196.983 145C191.619 142.121 187.483 138 184.574 132.636C181.695 127.242 180.256 120.788 180.256 113.273C180.256 106.061 181.71 99.7576 184.619 94.3636C187.528 88.9697 191.634 84.7727 196.938 81.7727C202.241 78.7727 208.498 77.2727 215.71 77.2727C220.983 77.2727 225.756 78.0909 230.028 79.7273C234.301 81.3636 237.953 83.7424 240.983 86.8636C244.013 89.9545 246.347 93.7121 247.983 98.1364C249.619 102.561 250.438 107.545 250.438 113.091V118.909H188.074V105.091H227.347C227.316 103.091 226.801 101.333 225.801 99.8182C224.831 98.2727 223.513 97.0758 221.847 96.2273C220.21 95.3485 218.347 94.9091 216.256 94.9091C214.225 94.9091 212.362 95.3485 210.665 96.2273C208.968 97.0758 207.604 98.2576 206.574 99.7727C205.574 101.288 205.044 103.061 204.983 105.091V120C204.983 122.242 205.453 124.242 206.392 126C207.331 127.758 208.68 129.136 210.438 130.136C212.195 131.136 214.316 131.636 216.801 131.636C218.528 131.636 220.104 131.394 221.528 130.909C222.983 130.424 224.225 129.727 225.256 128.818C226.286 127.879 227.044 126.758 227.528 125.455H250.438C249.65 130.303 247.786 134.515 244.847 138.091C241.907 141.636 238.013 144.394 233.165 146.364C228.347 148.303 222.71 149.273 216.256 149.273ZM280.131 149.091C275.676 149.091 271.737 148.364 268.312 146.909C264.919 145.424 262.252 143.182 260.312 140.182C258.373 137.182 257.403 133.364 257.403 128.727C257.403 124.909 258.055 121.652 259.358 118.955C260.661 116.227 262.479 114 264.812 112.273C267.146 110.545 269.858 109.227 272.949 108.318C276.07 107.409 279.434 106.818 283.04 106.545C286.949 106.242 290.085 105.879 292.449 105.455C294.843 105 296.57 104.379 297.631 103.591C298.691 102.773 299.222 101.697 299.222 100.364V100.182C299.222 98.3636 298.525 96.9697 297.131 96C295.737 95.0303 293.949 94.5455 291.767 94.5455C289.373 94.5455 287.419 95.0758 285.903 96.1364C284.419 97.1667 283.525 98.7576 283.222 100.909H260.131C260.434 96.6667 261.782 92.7576 264.176 89.1818C266.6 85.5758 270.131 82.697 274.767 80.5455C279.403 78.3636 285.191 77.2727 292.131 77.2727C297.131 77.2727 301.616 77.8636 305.585 79.0455C309.555 80.197 312.934 81.8182 315.722 83.9091C318.509 85.9697 320.631 88.3939 322.085 91.1818C323.57 93.9394 324.312 96.9394 324.312 100.182V148H300.858V138.182H300.312C298.919 140.788 297.222 142.894 295.222 144.5C293.252 146.106 290.994 147.273 288.449 148C285.934 148.727 283.161 149.091 280.131 149.091ZM288.312 133.273C290.222 133.273 292.009 132.879 293.676 132.091C295.373 131.303 296.752 130.167 297.812 128.682C298.873 127.197 299.403 125.394 299.403 123.273V117.455C298.737 117.727 298.025 117.985 297.267 118.227C296.54 118.47 295.752 118.697 294.903 118.909C294.085 119.121 293.206 119.318 292.267 119.5C291.358 119.682 290.403 119.848 289.403 120C287.464 120.303 285.873 120.803 284.631 121.5C283.419 122.167 282.509 123 281.903 124C281.328 124.97 281.04 126.061 281.04 127.273C281.04 129.212 281.722 130.697 283.085 131.727C284.449 132.758 286.191 133.273 288.312 133.273ZM381.574 117.455V78.1818H406.665V148H382.847V134.727H382.119C380.604 139.182 377.953 142.667 374.165 145.182C370.377 147.667 365.877 148.909 360.665 148.909C355.786 148.909 351.513 147.788 347.847 145.545C344.21 143.303 341.377 140.212 339.347 136.273C337.347 132.333 336.331 127.818 336.301 122.727V78.1818H361.392V117.455C361.422 120.909 362.301 123.621 364.028 125.591C365.786 127.561 368.241 128.545 371.392 128.545C373.483 128.545 375.286 128.106 376.801 127.227C378.347 126.318 379.528 125.045 380.347 123.409C381.195 121.742 381.604 119.758 381.574 117.455ZM461.062 78.1818V96.3636H415.062V78.1818H461.062ZM423.972 61.4545H449.062V125.545C449.062 126.515 449.229 127.333 449.562 128C449.896 128.636 450.411 129.121 451.108 129.455C451.805 129.758 452.699 129.909 453.79 129.909C454.547 129.909 455.426 129.818 456.426 129.636C457.456 129.455 458.214 129.303 458.699 129.182L462.335 146.818C461.214 147.152 459.608 147.561 457.517 148.045C455.456 148.53 453.002 148.848 450.153 149C444.396 149.303 439.563 148.712 435.653 147.227C431.744 145.712 428.805 143.333 426.835 140.091C424.866 136.848 423.911 132.788 423.972 127.909V61.4545ZM471.301 148V78.1818H496.392V148H471.301ZM483.847 70.9091C480.453 70.9091 477.544 69.7879 475.119 67.5455C472.695 65.303 471.483 62.6061 471.483 59.4545C471.483 56.303 472.695 53.6061 475.119 51.3636C477.544 49.1212 480.453 48 483.847 48C487.271 48 490.18 49.1212 492.574 51.3636C494.998 53.6061 496.21 56.303 496.21 59.4545C496.21 62.6061 494.998 65.303 492.574 67.5455C490.18 69.7879 487.271 70.9091 483.847 70.9091ZM550.994 78.1818V96.3636H504.267V78.1818H550.994ZM513.176 148V76.1818C513.176 70.4242 514.206 65.6515 516.267 61.8636C518.328 58.0758 521.237 55.2424 524.994 53.3636C528.752 51.4848 533.176 50.5454 538.267 50.5454C541.449 50.5454 544.54 50.7879 547.54 51.2727C550.57 51.7576 552.813 52.1818 554.267 52.5454L550.631 70.5455C549.722 70.2727 548.661 70.0606 547.449 69.9091C546.237 69.7273 545.176 69.6364 544.267 69.6364C541.903 69.6364 540.313 70.1364 539.494 71.1364C538.676 72.1364 538.267 73.4545 538.267 75.0909V148H513.176ZM575.949 174.182C573.07 174.182 570.328 173.955 567.722 173.5C565.116 173.076 562.828 172.485 560.858 171.727L566.312 153.909C568.373 154.636 570.252 155.106 571.949 155.318C573.676 155.53 575.146 155.409 576.358 154.955C577.6 154.5 578.494 153.636 579.04 152.364L579.585 151.091L555.04 78.1818H581.222L592.494 126.545H593.222L604.676 78.1818H631.04L605.585 153.818C604.312 157.667 602.464 161.121 600.04 164.182C597.646 167.273 594.494 169.712 590.585 171.5C586.676 173.288 581.797 174.182 575.949 174.182ZM678.949 174.182C676.07 174.182 673.328 173.955 670.722 173.5C668.116 173.076 665.828 172.485 663.858 171.727L669.312 153.909C671.373 154.636 673.252 155.106 674.949 155.318C676.676 155.53 678.146 155.409 679.358 154.955C680.6 154.5 681.494 153.636 682.04 152.364L682.585 151.091L658.04 78.1818H684.222L695.494 126.545H696.222L707.676 78.1818H734.04L708.585 153.818C707.312 157.667 705.464 161.121 703.04 164.182C700.646 167.273 697.494 169.712 693.585 171.5C689.676 173.288 684.797 174.182 678.949 174.182ZM772.688 149.273C765.112 149.273 758.627 147.773 753.233 144.773C747.839 141.742 743.703 137.53 740.824 132.136C737.945 126.712 736.506 120.424 736.506 113.273C736.506 106.121 737.945 99.8485 740.824 94.4545C743.703 89.0303 747.839 84.8182 753.233 81.8182C758.627 78.7879 765.112 77.2727 772.688 77.2727C780.263 77.2727 786.748 78.7879 792.142 81.8182C797.536 84.8182 801.672 89.0303 804.551 94.4545C807.43 99.8485 808.869 106.121 808.869 113.273C808.869 120.424 807.43 126.712 804.551 132.136C801.672 137.53 797.536 141.742 792.142 144.773C786.748 147.773 780.263 149.273 772.688 149.273ZM772.869 130.727C774.991 130.727 776.824 130.015 778.369 128.591C779.915 127.167 781.112 125.136 781.96 122.5C782.809 119.864 783.233 116.727 783.233 113.091C783.233 109.424 782.809 106.288 781.96 103.682C781.112 101.045 779.915 99.0152 778.369 97.5909C776.824 96.1667 774.991 95.4545 772.869 95.4545C770.627 95.4545 768.703 96.1667 767.097 97.5909C765.491 99.0152 764.263 101.045 763.415 103.682C762.566 106.288 762.142 109.424 762.142 113.091C762.142 116.727 762.566 119.864 763.415 122.5C764.263 125.136 765.491 127.167 767.097 128.591C768.703 130.015 770.627 130.727 772.869 130.727ZM864.324 117.455V78.1818H889.415V148H865.597V134.727H864.869C863.354 139.182 860.703 142.667 856.915 145.182C853.127 147.667 848.627 148.909 843.415 148.909C838.536 148.909 834.263 147.788 830.597 145.545C826.96 143.303 824.127 140.212 822.097 136.273C820.097 132.333 819.081 127.818 819.051 122.727V78.1818H844.142V117.455C844.172 120.909 845.051 123.621 846.778 125.591C848.536 127.561 850.991 128.545 854.142 128.545C856.233 128.545 858.036 128.106 859.551 127.227C861.097 126.318 862.278 125.045 863.097 123.409C863.945 121.742 864.354 119.758 864.324 117.455ZM902.176 148V78.1818H926.54V91.4545H927.267C928.54 86.5455 930.555 82.9545 933.312 80.6818C936.1 78.4091 939.358 77.2727 943.085 77.2727C944.176 77.2727 945.252 77.3636 946.312 77.5455C947.403 77.697 948.449 77.9242 949.449 78.2273V99.6364C948.206 99.2121 946.676 98.8939 944.858 98.6818C943.04 98.4697 941.479 98.3636 940.176 98.3636C937.722 98.3636 935.509 98.9242 933.54 100.045C931.6 101.136 930.07 102.682 928.949 104.682C927.828 106.652 927.267 108.97 927.267 111.636V148H902.176ZM983.176 148V78.1818H1006.99V91.4545H1007.72C1009.18 87.0909 1011.66 83.6364 1015.18 81.0909C1018.69 78.5455 1022.87 77.2727 1027.72 77.2727C1032.63 77.2727 1036.86 78.5758 1040.4 81.1818C1043.95 83.7576 1046.09 87.1818 1046.81 91.4545H1047.54C1048.72 87.1818 1051.24 83.7576 1055.09 81.1818C1058.93 78.5758 1063.45 77.2727 1068.63 77.2727C1075.33 77.2727 1080.75 79.4242 1084.9 83.7273C1089.09 88.0303 1091.18 93.7576 1091.18 100.909V148H1066.09V107.273C1066.09 104.212 1065.31 101.818 1063.77 100.091C1062.22 98.3333 1060.15 97.4545 1057.54 97.4545C1054.96 97.4545 1052.92 98.3333 1051.4 100.091C1049.92 101.818 1049.18 104.212 1049.18 107.273V148H1025.18V107.273C1025.18 104.212 1024.4 101.818 1022.86 100.091C1021.31 98.3333 1019.24 97.4545 1016.63 97.4545C1014.9 97.4545 1013.42 97.8485 1012.18 98.6364C1010.93 99.4242 1009.96 100.561 1009.27 102.045C1008.6 103.5 1008.27 105.242 1008.27 107.273V148H983.176ZM1148.82 117.455V78.1818H1173.91V148H1150.1V134.727H1149.37C1147.85 139.182 1145.2 142.667 1141.41 145.182C1137.63 147.667 1133.13 148.909 1127.91 148.909C1123.04 148.909 1118.76 147.788 1115.1 145.545C1111.46 143.303 1108.63 140.212 1106.6 136.273C1104.6 132.333 1103.58 127.818 1103.55 122.727V78.1818H1128.64V117.455C1128.67 120.909 1129.55 123.621 1131.28 125.591C1133.04 127.561 1135.49 128.545 1138.64 128.545C1140.73 128.545 1142.54 128.106 1144.05 127.227C1145.6 126.318 1146.78 125.045 1147.6 123.409C1148.45 121.742 1148.85 119.758 1148.82 117.455ZM1250.49 100.909H1227.4C1227.28 99.4848 1226.78 98.2576 1225.9 97.2273C1225.02 96.197 1223.89 95.4091 1222.49 94.8636C1221.13 94.2879 1219.62 94 1217.95 94C1215.8 94 1213.95 94.3939 1212.4 95.1818C1210.86 95.9697 1210.1 97.0909 1210.13 98.5455C1210.1 99.5758 1210.54 100.53 1211.45 101.409C1212.39 102.288 1214.19 102.97 1216.86 103.455L1231.04 106C1238.19 107.303 1243.51 109.5 1246.99 112.591C1250.51 115.652 1252.28 119.758 1252.31 124.909C1252.28 129.879 1250.8 134.197 1247.86 137.864C1244.95 141.5 1240.96 144.318 1235.9 146.318C1230.87 148.288 1225.13 149.273 1218.68 149.273C1208.01 149.273 1199.66 147.091 1193.63 142.727C1187.63 138.364 1184.28 132.606 1183.59 125.455H1208.49C1208.83 127.667 1209.92 129.379 1211.77 130.591C1213.65 131.773 1216.01 132.364 1218.86 132.364C1221.16 132.364 1223.05 131.97 1224.54 131.182C1226.05 130.394 1226.83 129.273 1226.86 127.818C1226.83 126.485 1226.16 125.424 1224.86 124.636C1223.59 123.848 1221.59 123.212 1218.86 122.727L1206.49 120.545C1199.37 119.303 1194.04 116.939 1190.49 113.455C1186.95 109.97 1185.19 105.485 1185.22 100C1185.19 95.1515 1186.46 91.0455 1189.04 87.6818C1191.65 84.2879 1195.36 81.7121 1200.18 79.9545C1205.02 78.1667 1210.77 77.2727 1217.4 77.2727C1227.49 77.2727 1235.45 79.3636 1241.27 83.5455C1247.12 87.7273 1250.19 93.5151 1250.49 100.909ZM1261.93 148V78.1818H1287.02V148H1261.93ZM1274.47 70.9091C1271.08 70.9091 1268.17 69.7879 1265.74 67.5455C1263.32 65.303 1262.11 62.6061 1262.11 59.4545C1262.11 56.303 1263.32 53.6061 1265.74 51.3636C1268.17 49.1212 1271.08 48 1274.47 48C1277.9 48 1280.8 49.1212 1283.2 51.3636C1285.62 53.6061 1286.84 56.303 1286.84 59.4545C1286.84 62.6061 1285.62 65.303 1283.2 67.5455C1280.8 69.7879 1277.9 70.9091 1274.47 70.9091ZM1333.44 149.273C1325.86 149.273 1319.38 147.773 1313.98 144.773C1308.59 141.742 1304.45 137.53 1301.57 132.136C1298.7 126.712 1297.26 120.424 1297.26 113.273C1297.26 106.121 1298.7 99.8485 1301.57 94.4545C1304.45 89.0303 1308.59 84.8182 1313.98 81.8182C1319.38 78.7879 1325.86 77.2727 1333.44 77.2727C1340.29 77.2727 1346.21 78.5152 1351.21 81C1356.24 83.4545 1360.13 86.9394 1362.89 91.4545C1365.65 95.9394 1367.04 101.212 1367.07 107.273H1343.8C1343.47 103.606 1342.41 100.818 1340.62 98.9091C1338.86 96.9697 1336.59 96 1333.8 96C1331.62 96 1329.71 96.6364 1328.07 97.9091C1326.44 99.1515 1325.16 101.045 1324.26 103.591C1323.35 106.106 1322.89 109.273 1322.89 113.091C1322.89 116.909 1323.35 120.091 1324.26 122.636C1325.16 125.152 1326.44 127.045 1328.07 128.318C1329.71 129.561 1331.62 130.182 1333.8 130.182C1335.65 130.182 1337.29 129.758 1338.71 128.909C1340.13 128.03 1341.29 126.758 1342.16 125.091C1343.07 123.394 1343.62 121.333 1343.8 118.909H1367.07C1366.98 125.061 1365.57 130.424 1362.85 135C1360.12 139.545 1356.26 143.061 1351.26 145.545C1346.29 148.03 1340.35 149.273 1333.44 149.273ZM44.5795 209.909V303H19.4886V209.909H44.5795ZM57.3636 303V233.182H82.4545V303H57.3636ZM69.9091 225.909C66.5152 225.909 63.6061 224.788 61.1818 222.545C58.7576 220.303 57.5455 217.606 57.5455 214.455C57.5455 211.303 58.7576 208.606 61.1818 206.364C63.6061 204.121 66.5152 203 69.9091 203C73.3333 203 76.2424 204.121 78.6364 206.364C81.0606 208.606 82.2727 211.303 82.2727 214.455C82.2727 217.606 81.0606 220.303 78.6364 222.545C76.2424 224.788 73.3333 225.909 69.9091 225.909ZM159.057 255.909H135.966C135.845 254.485 135.345 253.258 134.466 252.227C133.587 251.197 132.451 250.409 131.057 249.864C129.693 249.288 128.178 249 126.511 249C124.36 249 122.511 249.394 120.966 250.182C119.42 250.97 118.663 252.091 118.693 253.545C118.663 254.576 119.102 255.53 120.011 256.409C120.951 257.288 122.754 257.97 125.42 258.455L139.602 261C146.754 262.303 152.072 264.5 155.557 267.591C159.072 270.652 160.845 274.758 160.875 279.909C160.845 284.879 159.36 289.197 156.42 292.864C153.511 296.5 149.527 299.318 144.466 301.318C139.436 303.288 133.693 304.273 127.239 304.273C116.572 304.273 108.223 302.091 102.193 297.727C96.1932 293.364 92.8447 287.606 92.1477 280.455H117.057C117.39 282.667 118.481 284.379 120.33 285.591C122.208 286.773 124.572 287.364 127.42 287.364C129.723 287.364 131.617 286.97 133.102 286.182C134.617 285.394 135.39 284.273 135.42 282.818C135.39 281.485 134.723 280.424 133.42 279.636C132.148 278.848 130.148 278.212 127.42 277.727L115.057 275.545C107.936 274.303 102.602 271.939 99.0568 268.455C95.5114 264.97 93.7538 260.485 93.7841 255C93.7538 250.152 95.0265 246.045 97.6023 242.682C100.208 239.288 103.92 236.712 108.739 234.955C113.587 233.167 119.33 232.273 125.966 232.273C136.057 232.273 144.011 234.364 149.83 238.545C155.678 242.727 158.754 248.515 159.057 255.909ZM212.125 233.182V251.364H166.125V233.182H212.125ZM175.034 216.455H200.125V280.545C200.125 281.515 200.292 282.333 200.625 283C200.958 283.636 201.473 284.121 202.17 284.455C202.867 284.758 203.761 284.909 204.852 284.909C205.61 284.909 206.489 284.818 207.489 284.636C208.519 284.455 209.277 284.303 209.761 284.182L213.398 301.818C212.277 302.152 210.67 302.561 208.58 303.045C206.519 303.53 204.064 303.848 201.216 304C195.458 304.303 190.625 303.712 186.716 302.227C182.807 300.712 179.867 298.333 177.898 295.091C175.928 291.848 174.973 287.788 175.034 282.909V216.455ZM255.068 304.273C247.614 304.273 241.189 302.848 235.795 300C230.432 297.121 226.295 293 223.386 287.636C220.508 282.242 219.068 275.788 219.068 268.273C219.068 261.061 220.523 254.758 223.432 249.364C226.341 243.97 230.447 239.773 235.75 236.773C241.053 233.773 247.311 232.273 254.523 232.273C259.795 232.273 264.568 233.091 268.841 234.727C273.114 236.364 276.765 238.742 279.795 241.864C282.826 244.955 285.159 248.712 286.795 253.136C288.432 257.561 289.25 262.545 289.25 268.091V273.909H226.886V260.091H266.159C266.129 258.091 265.614 256.333 264.614 254.818C263.644 253.273 262.326 252.076 260.659 251.227C259.023 250.348 257.159 249.909 255.068 249.909C253.038 249.909 251.174 250.348 249.477 251.227C247.78 252.076 246.417 253.258 245.386 254.773C244.386 256.288 243.856 258.061 243.795 260.091V275C243.795 277.242 244.265 279.242 245.205 281C246.144 282.758 247.492 284.136 249.25 285.136C251.008 286.136 253.129 286.636 255.614 286.636C257.341 286.636 258.917 286.394 260.341 285.909C261.795 285.424 263.038 284.727 264.068 283.818C265.098 282.879 265.856 281.758 266.341 280.455H289.25C288.462 285.303 286.598 289.515 283.659 293.091C280.72 296.636 276.826 299.394 271.977 301.364C267.159 303.303 261.523 304.273 255.068 304.273ZM324.58 263.727V303H299.489V233.182H323.307V246.455H324.034C325.549 242.03 328.216 238.561 332.034 236.045C335.883 233.53 340.367 232.273 345.489 232.273C350.428 232.273 354.716 233.409 358.352 235.682C362.019 237.924 364.852 241.015 366.852 244.955C368.883 248.894 369.883 253.394 369.852 258.455V303H344.761V263.727C344.792 260.273 343.913 257.561 342.125 255.591C340.367 253.621 337.913 252.636 334.761 252.636C332.701 252.636 330.898 253.091 329.352 254C327.837 254.879 326.67 256.152 325.852 257.818C325.034 259.455 324.61 261.424 324.58 263.727ZM382.239 303V233.182H407.33V303H382.239ZM394.784 225.909C391.39 225.909 388.481 224.788 386.057 222.545C383.633 220.303 382.42 217.606 382.42 214.455C382.42 211.303 383.633 208.606 386.057 206.364C388.481 204.121 391.39 203 394.784 203C398.208 203 401.117 204.121 403.511 206.364C405.936 208.606 407.148 211.303 407.148 214.455C407.148 217.606 405.936 220.303 403.511 222.545C401.117 224.788 398.208 225.909 394.784 225.909ZM445.205 263.727V303H420.114V233.182H443.932V246.455H444.659C446.174 242.03 448.841 238.561 452.659 236.045C456.508 233.53 460.992 232.273 466.114 232.273C471.053 232.273 475.341 233.409 478.977 235.682C482.644 237.924 485.477 241.015 487.477 244.955C489.508 248.894 490.508 253.394 490.477 258.455V303H465.386V263.727C465.417 260.273 464.538 257.561 462.75 255.591C460.992 253.621 458.538 252.636 455.386 252.636C453.326 252.636 451.523 253.091 449.977 254C448.462 254.879 447.295 256.152 446.477 257.818C445.659 259.455 445.235 261.424 445.205 263.727ZM536.5 330.636C529.5 330.636 523.5 329.636 518.5 327.636C513.53 325.667 509.667 322.939 506.909 319.455C504.182 316 502.652 312.03 502.318 307.545H526.5C526.742 309.03 527.348 310.227 528.318 311.136C529.288 312.045 530.53 312.697 532.045 313.091C533.591 313.515 535.318 313.727 537.227 313.727C540.47 313.727 543.152 312.939 545.273 311.364C547.424 309.788 548.5 306.939 548.5 302.818V291H547.773C546.864 293.364 545.47 295.379 543.591 297.045C541.712 298.682 539.455 299.939 536.818 300.818C534.182 301.667 531.288 302.091 528.136 302.091C523.167 302.091 518.591 300.939 514.409 298.636C510.258 296.333 506.924 292.682 504.409 287.682C501.924 282.682 500.682 276.152 500.682 268.091C500.682 259.667 501.985 252.818 504.591 247.545C507.227 242.273 510.621 238.409 514.773 235.955C518.955 233.5 523.348 232.273 527.955 232.273C531.409 232.273 534.439 232.879 537.045 234.091C539.652 235.273 541.833 236.864 543.591 238.864C545.348 240.833 546.682 243 547.591 245.364H548.136V233.182H573.227V302.818C573.227 308.727 571.697 313.742 568.636 317.864C565.606 322.015 561.333 325.182 555.818 327.364C550.303 329.545 543.864 330.636 536.5 330.636ZM537.409 284.273C539.712 284.273 541.682 283.636 543.318 282.364C544.985 281.061 546.258 279.212 547.136 276.818C548.045 274.394 548.5 271.485 548.5 268.091C548.5 264.636 548.045 261.682 547.136 259.227C546.258 256.742 544.985 254.848 543.318 253.545C541.682 252.212 539.712 251.545 537.409 251.545C535.106 251.545 533.136 252.212 531.5 253.545C529.894 254.848 528.652 256.742 527.773 259.227C526.924 261.682 526.5 264.636 526.5 268.091C526.5 271.545 526.924 274.485 527.773 276.909C528.652 279.303 529.894 281.136 531.5 282.409C533.136 283.652 535.106 284.273 537.409 284.273ZM644.943 304.273C637.489 304.273 631.064 302.848 625.67 300C620.307 297.121 616.17 293 613.261 287.636C610.383 282.242 608.943 275.788 608.943 268.273C608.943 261.061 610.398 254.758 613.307 249.364C616.216 243.97 620.322 239.773 625.625 236.773C630.928 233.773 637.186 232.273 644.398 232.273C649.67 232.273 654.443 233.091 658.716 234.727C662.989 236.364 666.64 238.742 669.67 241.864C672.701 244.955 675.034 248.712 676.67 253.136C678.307 257.561 679.125 262.545 679.125 268.091V273.909H616.761V260.091H656.034C656.004 258.091 655.489 256.333 654.489 254.818C653.519 253.273 652.201 252.076 650.534 251.227C648.898 250.348 647.034 249.909 644.943 249.909C642.913 249.909 641.049 250.348 639.352 251.227C637.655 252.076 636.292 253.258 635.261 254.773C634.261 256.288 633.731 258.061 633.67 260.091V275C633.67 277.242 634.14 279.242 635.08 281C636.019 282.758 637.367 284.136 639.125 285.136C640.883 286.136 643.004 286.636 645.489 286.636C647.216 286.636 648.792 286.394 650.216 285.909C651.67 285.424 652.913 284.727 653.943 283.818C654.973 282.879 655.731 281.758 656.216 280.455H679.125C678.337 285.303 676.473 289.515 673.534 293.091C670.595 296.636 666.701 299.394 661.852 301.364C657.034 303.303 651.398 304.273 644.943 304.273ZM710.25 233.182L720.432 254.818L731.159 233.182H756.068L737.341 268.091L756.977 303H732.25L720.432 280.818L708.977 303H683.886L703.705 268.091L685.159 233.182H710.25ZM764.989 329.182V233.182H789.898V245.364H790.443C791.352 243 792.686 240.833 794.443 238.864C796.201 236.864 798.383 235.273 800.989 234.091C803.595 232.879 806.625 232.273 810.08 232.273C814.686 232.273 819.064 233.5 823.216 235.955C827.398 238.409 830.792 242.273 833.398 247.545C836.034 252.818 837.352 259.667 837.352 268.091C837.352 276.152 836.095 282.833 833.58 288.136C831.095 293.439 827.761 297.394 823.58 300C819.428 302.606 814.867 303.909 809.898 303.909C806.625 303.909 803.701 303.379 801.125 302.318C798.58 301.227 796.398 299.758 794.58 297.909C792.792 296.03 791.413 293.909 790.443 291.545H790.08V329.182H764.989ZM789.534 268.091C789.534 271.485 789.973 274.424 790.852 276.909C791.761 279.364 793.034 281.273 794.67 282.636C796.337 283.97 798.322 284.636 800.625 284.636C802.928 284.636 804.883 283.985 806.489 282.682C808.125 281.348 809.367 279.455 810.216 277C811.095 274.515 811.534 271.545 811.534 268.091C811.534 264.636 811.095 261.682 810.216 259.227C809.367 256.742 808.125 254.848 806.489 253.545C804.883 252.212 802.928 251.545 800.625 251.545C798.322 251.545 796.337 252.212 794.67 253.545C793.034 254.848 791.761 256.742 790.852 259.227C789.973 261.682 789.534 264.636 789.534 268.091ZM881.318 304.273C873.864 304.273 867.439 302.848 862.045 300C856.682 297.121 852.545 293 849.636 287.636C846.758 282.242 845.318 275.788 845.318 268.273C845.318 261.061 846.773 254.758 849.682 249.364C852.591 243.97 856.697 239.773 862 236.773C867.303 233.773 873.561 232.273 880.773 232.273C886.045 232.273 890.818 233.091 895.091 234.727C899.364 236.364 903.015 238.742 906.045 241.864C909.076 244.955 911.409 248.712 913.045 253.136C914.682 257.561 915.5 262.545 915.5 268.091V273.909H853.136V260.091H892.409C892.379 258.091 891.864 256.333 890.864 254.818C889.894 253.273 888.576 252.076 886.909 251.227C885.273 250.348 883.409 249.909 881.318 249.909C879.288 249.909 877.424 250.348 875.727 251.227C874.03 252.076 872.667 253.258 871.636 254.773C870.636 256.288 870.106 258.061 870.045 260.091V275C870.045 277.242 870.515 279.242 871.455 281C872.394 282.758 873.742 284.136 875.5 285.136C877.258 286.136 879.379 286.636 881.864 286.636C883.591 286.636 885.167 286.394 886.591 285.909C888.045 285.424 889.288 284.727 890.318 283.818C891.348 282.879 892.106 281.758 892.591 280.455H915.5C914.712 285.303 912.848 289.515 909.909 293.091C906.97 296.636 903.076 299.394 898.227 301.364C893.409 303.303 887.773 304.273 881.318 304.273ZM925.739 303V233.182H950.102V246.455H950.83C952.102 241.545 954.117 237.955 956.875 235.682C959.663 233.409 962.92 232.273 966.648 232.273C967.739 232.273 968.814 232.364 969.875 232.545C970.966 232.697 972.011 232.924 973.011 233.227V254.636C971.769 254.212 970.239 253.894 968.42 253.682C966.602 253.47 965.042 253.364 963.739 253.364C961.284 253.364 959.072 253.924 957.102 255.045C955.163 256.136 953.633 257.682 952.511 259.682C951.39 261.652 950.83 263.97 950.83 266.636V303H925.739ZM981.239 303V233.182H1006.33V303H981.239ZM993.784 225.909C990.39 225.909 987.481 224.788 985.057 222.545C982.633 220.303 981.42 217.606 981.42 214.455C981.42 211.303 982.633 208.606 985.057 206.364C987.481 204.121 990.39 203 993.784 203C997.208 203 1000.12 204.121 1002.51 206.364C1004.94 208.606 1006.15 211.303 1006.15 214.455C1006.15 217.606 1004.94 220.303 1002.51 222.545C1000.12 224.788 997.208 225.909 993.784 225.909ZM1052.57 304.273C1045.11 304.273 1038.69 302.848 1033.3 300C1027.93 297.121 1023.8 293 1020.89 287.636C1018.01 282.242 1016.57 275.788 1016.57 268.273C1016.57 261.061 1018.02 254.758 1020.93 249.364C1023.84 243.97 1027.95 239.773 1033.25 236.773C1038.55 233.773 1044.81 232.273 1052.02 232.273C1057.3 232.273 1062.07 233.091 1066.34 234.727C1070.61 236.364 1074.27 238.742 1077.3 241.864C1080.33 244.955 1082.66 248.712 1084.3 253.136C1085.93 257.561 1086.75 262.545 1086.75 268.091V273.909H1024.39V260.091H1063.66C1063.63 258.091 1063.11 256.333 1062.11 254.818C1061.14 253.273 1059.83 252.076 1058.16 251.227C1056.52 250.348 1054.66 249.909 1052.57 249.909C1050.54 249.909 1048.67 250.348 1046.98 251.227C1045.28 252.076 1043.92 253.258 1042.89 254.773C1041.89 256.288 1041.36 258.061 1041.3 260.091V275C1041.3 277.242 1041.77 279.242 1042.7 281C1043.64 282.758 1044.99 284.136 1046.75 285.136C1048.51 286.136 1050.63 286.636 1053.11 286.636C1054.84 286.636 1056.42 286.394 1057.84 285.909C1059.3 285.424 1060.54 284.727 1061.57 283.818C1062.6 282.879 1063.36 281.758 1063.84 280.455H1086.75C1085.96 285.303 1084.1 289.515 1081.16 293.091C1078.22 296.636 1074.33 299.394 1069.48 301.364C1064.66 303.303 1059.02 304.273 1052.57 304.273ZM1122.08 263.727V303H1096.99V233.182H1120.81V246.455H1121.53C1123.05 242.03 1125.72 238.561 1129.53 236.045C1133.38 233.53 1137.87 232.273 1142.99 232.273C1147.93 232.273 1152.22 233.409 1155.85 235.682C1159.52 237.924 1162.35 241.015 1164.35 244.955C1166.38 248.894 1167.38 253.394 1167.35 258.455V303H1142.26V263.727C1142.29 260.273 1141.41 257.561 1139.62 255.591C1137.87 253.621 1135.41 252.636 1132.26 252.636C1130.2 252.636 1128.4 253.091 1126.85 254C1125.34 254.879 1124.17 256.152 1123.35 257.818C1122.53 259.455 1122.11 261.424 1122.08 263.727ZM1213.38 304.273C1205.8 304.273 1199.31 302.773 1193.92 299.773C1188.53 296.742 1184.39 292.53 1181.51 287.136C1178.63 281.712 1177.19 275.424 1177.19 268.273C1177.19 261.121 1178.63 254.848 1181.51 249.455C1184.39 244.03 1188.53 239.818 1193.92 236.818C1199.31 233.788 1205.8 232.273 1213.38 232.273C1220.22 232.273 1226.15 233.515 1231.15 236C1236.18 238.455 1240.07 241.939 1242.83 246.455C1245.59 250.939 1246.98 256.212 1247.01 262.273H1223.74C1223.41 258.606 1222.34 255.818 1220.56 253.909C1218.8 251.97 1216.53 251 1213.74 251C1211.56 251 1209.65 251.636 1208.01 252.909C1206.38 254.152 1205.1 256.045 1204.19 258.591C1203.28 261.106 1202.83 264.273 1202.83 268.091C1202.83 271.909 1203.28 275.091 1204.19 277.636C1205.1 280.152 1206.38 282.045 1208.01 283.318C1209.65 284.561 1211.56 285.182 1213.74 285.182C1215.59 285.182 1217.22 284.758 1218.65 283.909C1220.07 283.03 1221.22 281.758 1222.1 280.091C1223.01 278.394 1223.56 276.333 1223.74 273.909H1247.01C1246.92 280.061 1245.51 285.424 1242.78 290C1240.06 294.545 1236.19 298.061 1231.19 300.545C1226.22 303.03 1220.28 304.273 1213.38 304.273ZM1290.82 304.273C1283.36 304.273 1276.94 302.848 1271.55 300C1266.18 297.121 1262.05 293 1259.14 287.636C1256.26 282.242 1254.82 275.788 1254.82 268.273C1254.82 261.061 1256.27 254.758 1259.18 249.364C1262.09 243.97 1266.2 239.773 1271.5 236.773C1276.8 233.773 1283.06 232.273 1290.27 232.273C1295.55 232.273 1300.32 233.091 1304.59 234.727C1308.86 236.364 1312.52 238.742 1315.55 241.864C1318.58 244.955 1320.91 248.712 1322.55 253.136C1324.18 257.561 1325 262.545 1325 268.091V273.909H1262.64V260.091H1301.91C1301.88 258.091 1301.36 256.333 1300.36 254.818C1299.39 253.273 1298.08 252.076 1296.41 251.227C1294.77 250.348 1292.91 249.909 1290.82 249.909C1288.79 249.909 1286.92 250.348 1285.23 251.227C1283.53 252.076 1282.17 253.258 1281.14 254.773C1280.14 256.288 1279.61 258.061 1279.55 260.091V275C1279.55 277.242 1280.02 279.242 1280.95 281C1281.89 282.758 1283.24 284.136 1285 285.136C1286.76 286.136 1288.88 286.636 1291.36 286.636C1293.09 286.636 1294.67 286.394 1296.09 285.909C1297.55 285.424 1298.79 284.727 1299.82 283.818C1300.85 282.879 1301.61 281.758 1302.09 280.455H1325C1324.21 285.303 1322.35 289.515 1319.41 293.091C1316.47 296.636 1312.58 299.394 1307.73 301.364C1302.91 303.303 1297.27 304.273 1290.82 304.273ZM1348.88 304.455C1345.36 304.455 1342.34 303.227 1339.83 300.773C1337.34 298.288 1336.12 295.273 1336.15 291.727C1336.12 288.273 1337.34 285.318 1339.83 282.864C1342.34 280.409 1345.36 279.182 1348.88 279.182C1352.21 279.182 1355.15 280.409 1357.69 282.864C1360.27 285.318 1361.57 288.273 1361.6 291.727C1361.57 294.091 1360.95 296.242 1359.74 298.182C1358.56 300.091 1357.01 301.621 1355.1 302.773C1353.19 303.894 1351.12 304.455 1348.88 304.455ZM1388.88 304.455C1385.36 304.455 1382.34 303.227 1379.83 300.773C1377.34 298.288 1376.12 295.273 1376.15 291.727C1376.12 288.273 1377.34 285.318 1379.83 282.864C1382.34 280.409 1385.36 279.182 1388.88 279.182C1392.21 279.182 1395.15 280.409 1397.69 282.864C1400.27 285.318 1401.57 288.273 1401.6 291.727C1401.57 294.091 1400.95 296.242 1399.74 298.182C1398.56 300.091 1397.01 301.621 1395.1 302.773C1393.19 303.894 1391.12 304.455 1388.88 304.455ZM1428.88 304.455C1425.36 304.455 1422.34 303.227 1419.83 300.773C1417.34 298.288 1416.12 295.273 1416.15 291.727C1416.12 288.273 1417.34 285.318 1419.83 282.864C1422.34 280.409 1425.36 279.182 1428.88 279.182C1432.21 279.182 1435.15 280.409 1437.69 282.864C1440.27 285.318 1441.57 288.273 1441.6 291.727C1441.57 294.091 1440.95 296.242 1439.74 298.182C1438.56 300.091 1437.01 301.621 1435.1 302.773C1433.19 303.894 1431.12 304.455 1428.88 304.455Z" fill="#252525"/>
<path d="M97.0625 148V54.9091H137.426C144.517 54.9091 150.472 55.8636 155.29 57.7727C160.138 59.6818 163.79 62.3788 166.244 65.8636C168.729 69.3485 169.972 73.4545 169.972 78.1818C169.972 81.6061 169.214 84.7273 167.699 87.5455C166.214 90.3636 164.123 92.7273 161.426 94.6364C158.729 96.5151 155.578 97.8182 151.972 98.5455V99.4545C155.972 99.6061 159.608 100.621 162.881 102.5C166.153 104.348 168.759 106.909 170.699 110.182C172.638 113.424 173.608 117.242 173.608 121.636C173.608 126.727 172.275 131.258 169.608 135.227C166.972 139.197 163.214 142.318 158.335 144.591C153.456 146.864 147.638 148 140.881 148H97.0625ZM122.335 127.818H134.153C138.396 127.818 141.578 127.03 143.699 125.455C145.82 123.848 146.881 121.485 146.881 118.364C146.881 116.182 146.381 114.333 145.381 112.818C144.381 111.303 142.956 110.152 141.108 109.364C139.29 108.576 137.093 108.182 134.517 108.182H122.335V127.818ZM122.335 92.5455H132.699C134.911 92.5455 136.866 92.197 138.562 91.5C140.259 90.803 141.578 89.803 142.517 88.5C143.487 87.1667 143.972 85.5455 143.972 83.6364C143.972 80.7576 142.941 78.5606 140.881 77.0455C138.82 75.5 136.214 74.7273 133.062 74.7273H122.335V92.5455ZM216.381 149.273C208.926 149.273 202.502 147.848 197.108 145C191.744 142.121 187.608 138 184.699 132.636C181.82 127.242 180.381 120.788 180.381 113.273C180.381 106.061 181.835 99.7576 184.744 94.3636C187.653 88.9697 191.759 84.7727 197.062 81.7727C202.366 78.7727 208.623 77.2727 215.835 77.2727C221.108 77.2727 225.881 78.0909 230.153 79.7273C234.426 81.3636 238.078 83.7424 241.108 86.8636C244.138 89.9545 246.472 93.7121 248.108 98.1364C249.744 102.561 250.562 107.545 250.562 113.091V118.909H188.199V105.091H227.472C227.441 103.091 226.926 101.333 225.926 99.8182C224.956 98.2727 223.638 97.0758 221.972 96.2273C220.335 95.3485 218.472 94.9091 216.381 94.9091C214.35 94.9091 212.487 95.3485 210.79 96.2273C209.093 97.0758 207.729 98.2576 206.699 99.7727C205.699 101.288 205.169 103.061 205.108 105.091V120C205.108 122.242 205.578 124.242 206.517 126C207.456 127.758 208.805 129.136 210.562 130.136C212.32 131.136 214.441 131.636 216.926 131.636C218.653 131.636 220.229 131.394 221.653 130.909C223.108 130.424 224.35 129.727 225.381 128.818C226.411 127.879 227.169 126.758 227.653 125.455H250.562C249.775 130.303 247.911 134.515 244.972 138.091C242.032 141.636 238.138 144.394 233.29 146.364C228.472 148.303 222.835 149.273 216.381 149.273ZM280.256 149.091C275.801 149.091 271.862 148.364 268.438 146.909C265.044 145.424 262.377 143.182 260.438 140.182C258.498 137.182 257.528 133.364 257.528 128.727C257.528 124.909 258.18 121.652 259.483 118.955C260.786 116.227 262.604 114 264.938 112.273C267.271 110.545 269.983 109.227 273.074 108.318C276.195 107.409 279.559 106.818 283.165 106.545C287.074 106.242 290.21 105.879 292.574 105.455C294.968 105 296.695 104.379 297.756 103.591C298.816 102.773 299.347 101.697 299.347 100.364V100.182C299.347 98.3636 298.65 96.9697 297.256 96C295.862 95.0303 294.074 94.5455 291.892 94.5455C289.498 94.5455 287.544 95.0758 286.028 96.1364C284.544 97.1667 283.65 98.7576 283.347 100.909H260.256C260.559 96.6667 261.907 92.7576 264.301 89.1818C266.725 85.5758 270.256 82.697 274.892 80.5455C279.528 78.3636 285.316 77.2727 292.256 77.2727C297.256 77.2727 301.741 77.8636 305.71 79.0455C309.68 80.197 313.059 81.8182 315.847 83.9091C318.634 85.9697 320.756 88.3939 322.21 91.1818C323.695 93.9394 324.438 96.9394 324.438 100.182V148H300.983V138.182H300.438C299.044 140.788 297.347 142.894 295.347 144.5C293.377 146.106 291.119 147.273 288.574 148C286.059 148.727 283.286 149.091 280.256 149.091ZM288.438 133.273C290.347 133.273 292.134 132.879 293.801 132.091C295.498 131.303 296.877 130.167 297.938 128.682C298.998 127.197 299.528 125.394 299.528 123.273V117.455C298.862 117.727 298.15 117.985 297.392 118.227C296.665 118.47 295.877 118.697 295.028 118.909C294.21 119.121 293.331 119.318 292.392 119.5C291.483 119.682 290.528 119.848 289.528 120C287.589 120.303 285.998 120.803 284.756 121.5C283.544 122.167 282.634 123 282.028 124C281.453 124.97 281.165 126.061 281.165 127.273C281.165 129.212 281.847 130.697 283.21 131.727C284.574 132.758 286.316 133.273 288.438 133.273ZM381.699 117.455V78.1818H406.79V148H382.972V134.727H382.244C380.729 139.182 378.078 142.667 374.29 145.182C370.502 147.667 366.002 148.909 360.79 148.909C355.911 148.909 351.638 147.788 347.972 145.545C344.335 143.303 341.502 140.212 339.472 136.273C337.472 132.333 336.456 127.818 336.426 122.727V78.1818H361.517V117.455C361.547 120.909 362.426 123.621 364.153 125.591C365.911 127.561 368.366 128.545 371.517 128.545C373.608 128.545 375.411 128.106 376.926 127.227C378.472 126.318 379.653 125.045 380.472 123.409C381.32 121.742 381.729 119.758 381.699 117.455ZM461.188 78.1818V96.3636H415.188V78.1818H461.188ZM424.097 61.4545H449.188V125.545C449.188 126.515 449.354 127.333 449.688 128C450.021 128.636 450.536 129.121 451.233 129.455C451.93 129.758 452.824 129.909 453.915 129.909C454.672 129.909 455.551 129.818 456.551 129.636C457.581 129.455 458.339 129.303 458.824 129.182L462.46 146.818C461.339 147.152 459.733 147.561 457.642 148.045C455.581 148.53 453.127 148.848 450.278 149C444.521 149.303 439.688 148.712 435.778 147.227C431.869 145.712 428.93 143.333 426.96 140.091C424.991 136.848 424.036 132.788 424.097 127.909V61.4545ZM471.426 148V78.1818H496.517V148H471.426ZM483.972 70.9091C480.578 70.9091 477.669 69.7879 475.244 67.5455C472.82 65.303 471.608 62.6061 471.608 59.4545C471.608 56.303 472.82 53.6061 475.244 51.3636C477.669 49.1212 480.578 48 483.972 48C487.396 48 490.305 49.1212 492.699 51.3636C495.123 53.6061 496.335 56.303 496.335 59.4545C496.335 62.6061 495.123 65.303 492.699 67.5455C490.305 69.7879 487.396 70.9091 483.972 70.9091ZM551.119 78.1818V96.3636H504.392V78.1818H551.119ZM513.301 148V76.1818C513.301 70.4242 514.331 65.6515 516.392 61.8636C518.453 58.0758 521.362 55.2424 525.119 53.3636C528.877 51.4848 533.301 50.5454 538.392 50.5454C541.574 50.5454 544.665 50.7879 547.665 51.2727C550.695 51.7576 552.938 52.1818 554.392 52.5454L550.756 70.5455C549.847 70.2727 548.786 70.0606 547.574 69.9091C546.362 69.7273 545.301 69.6364 544.392 69.6364C542.028 69.6364 540.438 70.1364 539.619 71.1364C538.801 72.1364 538.392 73.4545 538.392 75.0909V148H513.301ZM576.074 174.182C573.195 174.182 570.453 173.955 567.847 173.5C565.241 173.076 562.953 172.485 560.983 171.727L566.438 153.909C568.498 154.636 570.377 155.106 572.074 155.318C573.801 155.53 575.271 155.409 576.483 154.955C577.725 154.5 578.619 153.636 579.165 152.364L579.71 151.091L555.165 78.1818H581.347L592.619 126.545H593.347L604.801 78.1818H631.165L605.71 153.818C604.438 157.667 602.589 161.121 600.165 164.182C597.771 167.273 594.619 169.712 590.71 171.5C586.801 173.288 581.922 174.182 576.074 174.182Z" fill="url(#paint0_linear_52_1457)"/>
<defs>
<linearGradient id="paint0_linear_52_1457" x1="513.94" y1="1.95864e-05" x2="5.13791" y2="214.204" gradientUnits="userSpaceOnUse">
<stop stop-color="#B47CFB"/>
<stop offset="1" stop-color="#FB7C93"/>
</linearGradient>
</defs>
</svg>
