<svg width="750" height="545" viewBox="0 0 750 545" fill="none" xmlns="http://www.w3.org/2000/svg">
<path d="M227.668 500.568C162.591 562.934 52.3746 562.685 21.5942 479.566C15.5678 463.292 10.7495 446.56 7.20568 429.486C-7.26377 359.773 0.162481 287.515 28.5454 221.847C56.9282 156.181 104.993 100.054 166.661 60.5656C228.33 21.077 300.833 -3.0447e-06 375.001 0C449.169 3.0447e-06 521.671 21.077 583.339 60.5656C645.008 100.054 693.072 156.181 721.455 221.849C749.838 287.515 757.263 359.773 742.795 429.486C739.251 446.56 734.433 463.292 728.405 479.566C697.625 562.685 587.409 562.934 522.332 500.568L421.875 404.297C412.278 395.099 413.269 379.931 415.917 367.174C417.525 359.42 416.699 351.381 413.542 344.076C410.384 336.77 405.038 330.525 398.178 326.133C391.317 321.741 383.252 319.396 375.001 319.396C366.75 319.396 358.684 321.741 351.824 326.133C344.962 330.525 339.616 336.77 336.458 344.076C333.3 351.381 332.474 359.42 334.085 367.174C336.733 379.931 337.722 395.099 328.124 404.297L227.668 500.568Z" fill="#ECECEC"/>
</svg>
